<svg xmlns="http://www.w3.org/2000/svg" xmlns:xlink="http://www.w3.org/1999/xlink" width="66.66666660043916" height="54" version="1.1"><rect id="backgroundrect" width="100%" height="100%" x="0" y="0" fill="none" stroke="none" class="" style=""/>
    <!-- Generator: Sketch 60 (88103) - https://sketch.com -->
    <title>Freschat Logo</title>
    <desc>Created with Sketch.</desc>
    
<g class="currentLayer" style=""><title>Layer 1</title><g id="Freschat-Logo" stroke="none" stroke-width="1" fill="none" fill-rule="evenodd" class="" fill-opacity="1">
        <g id="Group" fill="none" fill-opacity="1">
            <path d="M35.70398128666727,27.33999123942071 L24.255778930761558,27.33999123942071 C23.40404458357941,27.33999123942071 22.714102564202957,27.890086356223943 22.714102564202957,28.569179515170724 C22.714102564202957,29.248272674117505 23.40404458357941,29.798367790920736 24.255778930761558,29.798367790920736 L35.70398128666727,29.798367790920736 C36.555715581778315,29.798367790920736 37.24565760115473,29.248272674117505 37.24565760115473,28.569179515170724 C37.24565760115473,27.890086356223943 36.555715581778315,27.33999123942071 35.70398128666727,27.33999123942071 " id="Fill-1" fill="#665ed8" fill-opacity="1"/>
            <path d="M42.75031639320678,21.32438237603165 L24.255778930761558,21.32438237603165 C23.40404458357941,21.32438237603165 22.714102564203003,21.874477490699732 22.714102564203003,22.55357065178165 C22.714102564203003,23.232663810728436 23.40404458357941,23.782758927531663 24.255778930761558,23.782758927531663 L42.75031639320678,23.782758927531663 C43.60205072737115,23.782758927531663 44.29199274674757,23.232663810728436 44.29199274674757,22.55357065178165 C44.29199274674757,21.874477490699732 43.60205072737115,21.32438237603165 42.75031639320678,21.32438237603165 " id="Fill-2" fill="#665ed8" fill-opacity="1"/>
        </g>
        <g id="Group-7" fill="none" fill-opacity="1">
            <path d="M50.36278722797393,28.67532480743691 C50.36278722797393,32.311117430916454 46.742100256070856,35.25805547276756 42.27506817824115,35.25805547276756 L19.80707351245763,35.25805547276756 C18.81461066317914,35.25805547276756 18.010013558311787,34.60318036421809 18.010013558311787,33.795398053841225 L18.010013558311787,22.593017488504003 C18.010013558311787,18.958769425348777 21.630700530214874,16.01028671641635 26.097732477866828,16.01028671641635 L42.27506817824115,16.01028671641635 C46.742100256070856,16.01028671641635 50.36278722797393,18.958769425348777 50.36278722797393,22.593017488504003 L50.36278722797393,28.67532480743691 zM56.617391255405664,0.39985515774741953 L32.35233650529855,0.39985515774741953 C14.48420819397978,0.39985515774741953 -0.00043731769215740865,12.189152085111743 -0.00043731769215740865,26.73232257902994 C-0.00043731769215740865,41.27549307294814 14.48420819397978,53.06479001419087 32.35233650529855,53.06479001419087 C50.22046468643958,53.06479001419087 64.7051101749607,41.27549307294814 64.7051101749607,26.73232257902994 L64.7051101749607,6.982585894605264 C64.7051101749607,3.3467932711257142 61.08442320305761,0.39985515774741953 56.617391255405664,0.39985515774741953 L56.617391255405664,0.39985515774741953 z" id="Fill-5" fill="#665ed8" fill-opacity="1"/>
        </g>
    </g></g></svg>